# xmcd CD database file
#
# Track frame offsets:
#	150
#	16400
#	37527
#	54887
#	74065
#	92665
#	103412
#	132187
#	147672
#	167567
#	185910
#	199005
#	218435
#
# Disc length: 3356 seconds
#
# Revision: 0
# Processed by: cddbd v1.5.2PL0 Copyright (c) Steve Scherf et al.
# Submitted via: CDex 1.70beta2
#
DISCID=b90d1a0d
DTITLE=Take It For Granted - Granted
DYEAR=1997
DGENRE=Blues
TTITLE0=Granted
TTITLE1=Suits Me Just Fine
TTITLE2=Might Have Looked Wild
TTITLE3=Going Down The Line
TTITLE4=Outside
TTITLE5=Have It All
TTITLE6=Bitter Tears
TTITLE7=Ain't Gonna Fight
TTITLE8=Mean Man
TTITLE9=As Long As You
TTITLE10=She's Got Nananana
TTITLE11=Breakdown
TTITLE12=Tribute To Rory
EXTD=YEAR: 1997
EXTT0=
EXTT1=
EXTT2=
EXTT3=
EXTT4=
EXTT5=
EXTT6=
EXTT7=
EXTT8=
EXTT9=
EXTT10=
EXTT11=
EXTT12=
PLAYORDER=
